<svg width="818.699707" height="188.418701" viewBox="0 0 818.7 188.419" fill="none" xmlns="http://www.w3.org/2000/svg" xmlns:xlink="http://www.w3.org/1999/xlink">
	<desc>
			Created with Pixso.
	</desc>
	<defs/>
	<path id="Vector 4" d="M818.7 188.41L818.7 127.39L794.82 127.39L794.82 121.62L787 121.62L787 112.14L780 112.14L780 102.66L755.31 102.66L755.31 164.5L751.19 164.5L751.19 155.84L749.54 155.84L749.54 153.78L739.25 153.78L739.25 144.3L735.96 144.3L735.96 141.41L733.49 141.41L733.49 138.53L725.26 138.53L725.26 142.24L722.38 142.24L722.38 145.12L719.91 145.12L716.2 141.41L710.44 141.41L707.56 144.3L698.92 144.3L698.92 170.69L693.15 170.69L693.15 126.16L668.04 126.16L668.04 119.56L650.76 119.56L650.76 101.01L643.35 101.01L643.35 98.95L605.89 98.95L605.89 115.85L595.19 115.85L595.19 106.37L590.66 106.37L590.66 69.67L575.43 69.67L575.43 41.22L538.39 41.22L538.39 96.06L527.27 96.06L527.27 90.29L493.93 90.29L493.93 66.37L462.24 66.37L462.24 73.38L448.65 73.38L448.65 96.06L444.13 96.06L444.13 102.24L433.84 102.24L433.84 75.86L402.14 75.86L402.14 77.09L395.14 77.09L395.14 105.13L379.91 105.13L379.91 109.25L357.69 109.25L357.69 120.39L349.46 120.39L349.46 113.79L331.76 113.79L331.76 102.24L329.7 102.24L329.7 100.18L322.29 100.18L322.29 102.24L320.23 102.24L320.23 120.39L302.94 120.39L302.94 94L281.13 94L281.13 100.18L275.37 100.18L275.37 103.89L272.07 103.89L272.07 94L268.78 94L268.78 86.16L234.2 86.16L234.2 94L230.91 94L230.91 98.53L216.09 98.53L216.09 96.88L214.45 96.88L214.45 94.82L213.21 94.82L213.21 92.76L211.56 92.76L211.56 90.7L204.57 90.7L204.57 94L190.57 94L190.57 103.89L173.7 103.89L173.7 110.49L171.64 110.49L171.64 90.7L136.24 90.7L136.24 84.93L110.31 84.93L110.31 69.26L109.07 69.26L109.07 27.21L104.96 27.21L104.96 7L100.02 7L100.02 0L76.97 0L76.97 6.18L72.44 6.18L72.44 27.21L67.09 27.21L67.09 70.5L53.92 70.5L53.92 76.68L44.04 76.68L44.04 92.76L39.51 92.76L39.51 99.36L33.75 99.36L33.75 101.42L28.4 101.42L28.4 124.51L0 124.51L0 188.41L817.87 188.41L818.7 188.41Z" fill="#000000" fill-opacity="1.000000" fill-rule="evenodd"/>
</svg>
