<svg width="1600" height="839" viewBox="0 0 1600 839" fill="none" xmlns="http://www.w3.org/2000/svg">
<g opacity="0.3" filter="url(#filter0_f_8_62)">
<path d="M1753 496.44V638.424H1751.08H-152V489.724H-85.9141V436.001H-73.4631V431.204H-60.0543V415.854H-49.5189V378.44H-26.5325V364.049H4.1161V263.317H16.5671V214.39H27.1025V200H80.7375V216.309H92.2307V263.317H101.808V361.171H104.682V397.627H165.021V411.058H247.389V457.106H252.178V441.757H291.446V418.732H324.011V411.058H340.293V415.854H344.124V420.651H346.997V425.448H350.828V429.285H385.308V418.732H392.97V400.505H473.422V418.732H481.084V441.757H488.747V433.123H502.155V418.732H552.917V480.131H593.143V437.919H597.932V433.123H615.172V437.919H619.961V464.781H661.145V480.131H680.3V454.228H732.02V444.635H767.457V379.399H783.739V376.521H857.487V437.919H881.431V423.529H891.967V370.765H923.573V354.456H997.321V410.098H1074.9V423.529H1100.76V295.935H1186.96V362.131H1222.4V447.513H1232.93V469.578H1257.83V430.245H1344.99V435.041H1362.23V478.212H1402.46V493.562H1460.88V597.172H1474.29V535.773H1494.4L1501.11 529.058H1514.52L1523.14 537.692H1528.88V530.977H1535.59V522.342H1554.74V529.058H1560.49V535.773H1568.15V557.838H1592.09V562.635H1595.93V582.782H1605.5V438.879H1662.97V460.944H1679.25V483.009H1697.45V496.44H1753Z" fill="white"/>
</g>
<path d="M1733 430.44V572.424H1731.08H-172V423.724H-105.914V370.001H-93.4631V365.204H-80.0543V349.854H-69.5189V312.44H-46.5325V298.049H-15.8839V197.317H-3.43291V148.39H7.10254V134H60.7375V150.309H72.2307V197.317H81.8084V295.171H84.6817V331.627H145.021V345.058H227.389V391.106H232.178V375.757H271.446V352.732H304.011V345.058H320.293V349.854H324.124V354.651H326.997V359.448H330.828V363.285H365.308V352.732H372.97V334.505H453.422V352.732H461.084V375.757H468.747V367.123H482.155V352.732H532.917V414.131H573.143V371.919H577.932V367.123H595.172V371.919H599.961V398.781H641.145V414.131H660.3V388.228H712.02V378.635H747.457V313.399H763.739V310.521H837.487V371.919H861.431V357.529H871.967V304.765H903.573V288.456H977.321V344.098H1054.9V357.529H1080.76V229.935H1166.96V296.131H1202.4V381.513H1212.93V403.578H1237.83V364.245H1324.99V369.041H1342.23V412.212H1382.46V427.562H1440.88V531.172H1454.29V469.773H1474.4L1481.11 463.058H1494.52L1503.14 471.692H1508.88V464.977H1515.59V456.342H1534.74V463.058H1540.49V469.773H1548.15V491.838H1572.09V496.635H1575.93V516.782H1585.5V372.879H1642.97V394.944H1659.25V417.009H1677.45V430.44H1733Z" fill="black"/>
<defs>
<filter id="filter0_f_8_62" x="-352" y="0" width="2305" height="838.424" filterUnits="userSpaceOnUse" color-interpolation-filters="sRGB">
<feFlood flood-opacity="0" result="BackgroundImageFix"/>
<feBlend mode="normal" in="SourceGraphic" in2="BackgroundImageFix" result="shape"/>
<feGaussianBlur stdDeviation="100" result="effect1_foregroundBlur_8_62"/>
</filter>
</defs>
</svg>
