<svg width="24" height="27" viewBox="0 0 24 27" fill="none" xmlns="http://www.w3.org/2000/svg">
<path d="M22.3612 20.0034L21.8931 19.3169C19.4903 15.9779 15.7457 14.0432 11.5954 14.0432C7.44519 14.0432 3.73179 15.9779 1.29781 19.3169L0.798527 20.0034C-0.137622 21.2828 -0.262442 22.9054 0.486477 24.3096C1.2354 25.7139 2.57721 26.5564 4.16866 26.5564H18.991C20.5825 26.5564 21.9555 25.7139 22.6732 24.3096C23.4221 22.9054 23.2973 21.2828 22.3612 20.0034Z" fill="#FBDF96"/>
<path d="M11.5926 12.482C15.0394 12.482 17.8336 9.6878 17.8336 6.24099C17.8336 2.79419 15.0394 0 11.5926 0C8.14575 0 5.35156 2.79419 5.35156 6.24099C5.35156 9.6878 8.14575 12.482 11.5926 12.482Z" fill="#FBDF96"/>
</svg>
