<svg width="18" height="20" viewBox="0 0 18 20" fill="none" xmlns="http://www.w3.org/2000/svg">
<path d="M1.32329 11.9524C1.76881 11.6984 2.16659 11.5714 2.51664 11.5714C2.89851 11.5397 3.3122 11.5079 3.75772 11.4762C4.23506 11.4127 4.79195 11.2857 5.4284 11.0952C6.09668 10.9048 6.93998 10.5397 7.9583 10C6.93998 9.46032 6.09668 9.11111 5.4284 8.95238C4.79195 8.7619 4.23506 8.65079 3.75772 8.61905C3.3122 8.55556 2.89851 8.50794 2.51664 8.47619C2.16659 8.44444 1.76881 8.30159 1.32329 8.04762C0.782305 7.73016 0.384523 7.28571 0.129942 6.71429C-0.0928159 6.14286 -0.0291707 5.57143 0.320878 5C0.734572 4.33333 1.3392 4 2.13477 4C2.67575 4 3.12127 4.11111 3.47131 4.33333C3.91683 4.5873 4.23506 4.87302 4.42599 5.19048C4.64875 5.50794 4.88742 5.85714 5.142 6.2381C5.4284 6.61905 5.81027 7.04762 6.28761 7.52381C6.76495 8 7.49687 8.53968 8.48337 9.14286C8.45155 8 8.34017 7.09524 8.14923 6.42857C7.99012 5.76191 7.8151 5.22222 7.62416 4.80952C7.43323 4.36508 7.2582 3.98413 7.09909 3.66667C6.93998 3.31746 6.86042 2.88889 6.86042 2.38095C6.86042 1.77778 7.05136 1.2381 7.43323 0.761906C7.8151 0.253969 8.34017 0 9.00844 0C9.67672 0 10.2018 0.253969 10.5837 0.761906C10.9655 1.2381 11.1565 1.77778 11.1565 2.38095C11.1565 2.88889 11.0769 3.31746 10.9178 3.66667C10.7587 3.98413 10.5837 4.36508 10.3927 4.80952C10.2018 5.22222 10.0109 5.76191 9.81992 6.42857C9.66081 7.09524 9.54943 8 9.48578 9.14286C10.4723 8.53968 11.2042 8 11.6815 7.52381C12.1907 7.01587 12.5726 6.57143 12.8272 6.19048C13.1136 5.80952 13.3681 5.47619 13.5909 5.19048C13.8137 4.87302 14.1319 4.5873 14.5456 4.33333C14.8956 4.11111 15.3411 4 15.8821 4C16.6777 4 17.2823 4.33333 17.696 5C18.0461 5.57143 18.0938 6.14286 17.8392 6.71429C17.6165 7.28571 17.2346 7.73016 16.6936 8.04762C16.2799 8.30159 15.8821 8.44444 15.5003 8.47619C15.1502 8.50794 14.7365 8.55556 14.2592 8.61905C13.7818 8.65079 13.209 8.7619 12.5408 8.95238C11.8725 9.11111 11.0292 9.46032 10.0109 10C11.0292 10.5397 11.8725 10.9048 12.5408 11.0952C13.209 11.2857 13.7818 11.4127 14.2592 11.4762C14.7365 11.5079 15.1502 11.5397 15.5003 11.5714C15.8821 11.5714 16.2799 11.6984 16.6936 11.9524C17.2346 12.2698 17.6165 12.7143 17.8392 13.2857C18.0938 13.8571 18.0461 14.4286 17.696 15C17.2823 15.6667 16.6777 16 15.8821 16C15.3411 16 14.8956 15.8889 14.5456 15.6667C14.1319 15.4127 13.8137 15.1429 13.5909 14.8571C13.3681 14.5397 13.1136 14.1905 12.8272 13.8095C12.5726 13.4286 12.1907 13 11.6815 12.5238C11.2042 12.0159 10.4723 11.4603 9.48578 10.8571C9.54943 12 9.66081 12.9048 9.81992 13.5714C10.0109 14.2381 10.2018 14.7937 10.3927 15.2381C10.5837 15.6825 10.7587 16.0794 10.9178 16.4286C11.0769 16.746 11.1565 17.1429 11.1565 17.619C11.1565 18.2222 10.9655 18.7778 10.5837 19.2857C10.2018 19.7619 9.67672 20 9.00844 20C8.34017 20 7.8151 19.7619 7.43323 19.2857C7.05136 18.7778 6.86042 18.2222 6.86042 17.619C6.86042 17.1429 6.93998 16.746 7.09909 16.4286C7.2582 16.0794 7.43323 15.6825 7.62416 15.2381C7.8151 14.7937 7.99012 14.2381 8.14923 13.5714C8.34017 12.9048 8.45155 12 8.48337 10.8571C7.49687 11.4603 6.76495 12.0159 6.28761 12.5238C5.81027 13 5.4284 13.4286 5.142 13.8095C4.88742 14.1905 4.64875 14.5397 4.42599 14.8571C4.23506 15.1429 3.91683 15.4127 3.47131 15.6667C3.12127 15.8889 2.67575 16 2.13477 16C1.3392 16 0.734572 15.6667 0.320878 15C-0.0291707 14.4286 -0.0928159 13.8571 0.129942 13.2857C0.384523 12.7143 0.782305 12.2698 1.32329 11.9524Z" fill="#FBDF96"/>
</svg>
